<?xml version="1.0" encoding="utf-8"?>
<!-- Generator: Adobe Illustrator 26.5.0, SVG Export Plug-In . SVG Version: 6.00 Build 0)  -->
<svg version="1.1" id="Capa_1" xmlns="http://www.w3.org/2000/svg" xmlns:xlink="http://www.w3.org/1999/xlink" x="0px" y="0px"
	 viewBox="0 0 512.75 560.6526" style="enable-background:new 0 0 512.75 560.6526;" xml:space="preserve">
<style type="text/css">
	.st0{fill:#FFFFFF;stroke:#333333;stroke-width:0.75;stroke-miterlimit:10;}
	.st1{fill:#19DCF7;}
	.st2{fill:#00C7F7;}
	.st3{fill:#28BEF7;}
	.st4{fill:#4AE6F7;}
	.st5{fill:#00D3F7;}
	.st6{fill:#0096E8;}
	.st7{fill:#333333;}
</style>
<g>
	<path class="st0" d="M494.5797,560.2776H18.1703c-9.8281,0-17.7953-7.9672-17.7953-17.7953V18.1703
		c0-9.8281,7.9672-17.7953,17.7953-17.7953h476.4094c9.8281,0,17.7953,7.9672,17.7953,17.7953v524.3121
		C512.375,552.3104,504.4078,560.2776,494.5797,560.2776z"/>
	<g>
		<g>
			<g>
				<polygon class="st1" points="295.9141,68.4053 263.0482,76.6217 279.481,109.4876 				"/>
			</g>
			<g>
				<polygon class="st2" points="90.3203,175.0022 98.7188,208.0851 123.3682,191.6522 				"/>
			</g>
			<g>
				<polygon class="st3" points="156.2341,93.0546 164.4506,117.704 213.7494,142.3534 197.3164,93.0546 				"/>
			</g>
			<g>
				<polygon class="st4" points="98.7188,208.0851 65.8529,314.8991 123.3682,191.6522 				"/>
			</g>
			<g>
				<polygon class="st2" points="123.3682,191.6522 65.8529,314.8991 74.0694,314.8991 156.2341,249.1675 213.7494,167.0028 				"/>
			</g>
			<g>
				<polygon class="st5" points="156.2341,249.1675 230.1823,249.1675 213.7494,167.0028 				"/>
			</g>
			<g>
				<polygon class="st4" points="279.481,109.4876 230.1823,249.1675 254.8316,314.8991 263.0482,314.8991 304.1305,208.0851 				
					"/>
			</g>
			<g>
				<polygon class="st1" points="213.7494,167.0028 230.1823,249.1675 279.481,109.4876 				"/>
			</g>
			<g>
				<polygon class="st6" points="213.7494,142.3534 213.7494,167.0028 279.481,109.4876 				"/>
			</g>
			<g>
				<path class="st5" d="M263.0482,76.6217h-49.2987l-16.433,16.4329l16.433,49.2988l65.7316-32.8658L263.0482,76.6217z
					 M221.9658,101.2711c-4.5378,0-8.2164-3.6787-8.2164-8.2165c0-4.5378,3.6786-8.2164,8.2164-8.2164s8.2165,3.6786,8.2165,8.2164
					C230.1823,97.5924,226.5037,101.2711,221.9658,101.2711z"/>
			</g>
			<g>
				<polygon class="st6" points="125.0976,290.2498 148.0176,314.8991 156.2341,314.8991 153.6661,265.6004 				"/>
			</g>
			<g>
				<polygon class="st6" points="305.8564,236.9196 287.6976,290.2497 304.1305,314.8991 312.347,314.8992 				"/>
			</g>
		</g>
		<path class="st7" d="M399.7241,368.6367c-11.1434,0-20.4554,8.6246-20.4554,21.9822c0,12.8234,8.2437,21.677,21.9065,21.677
			c5.3416,0,10.2277-1.4505,14.501-4.3508v-8.0905c-4.1982,3.2819-8.8542,4.9612-13.5853,4.9612
			c-7.328,0-12.8997-4.2744-14.1982-11.6019h29.9976c0.1526-1.0689,0.2302-2.2135,0.2302-3.5108
			C418.1205,375.8878,409.7992,368.6367,399.7241,368.6367z M387.8927,387.1838c1.0707-6.869,6.1071-11.0671,11.7563-11.0671
			c5.189,0,9.6924,3.664,9.9225,11.0671H387.8927z M98.8253,376.4982c-2.8997-4.7323-8.2413-7.7852-14.1182-7.7852
			c-9.7699,0-18.8542,8.6247-18.8542,20.9139c0,12.5175,8.9317,20.9133,18.7016,20.9133c5.8769,0,10.9133-2.9766,13.7379-7.48
			v5.3434c0,7.0979-5.8018,11.8302-13.2049,11.8302c-5.2665,0-10.7631-2.2899-15.0363-6.0296v9.0831
			c4.3508,3.1286,10,5.0375,15.6468,5.0375c11.9065,0,21.6013-7.4043,21.6013-21.1428v-37.5527h-7.4806L98.8253,376.4982z
			 M86.6911,402.4497c-6.7175,0-11.8314-5.496-11.8314-12.7465c0-7.2517,5.1139-12.8234,11.8314-12.8234
			c6.7151,0,11.829,5.3428,11.829,12.5945C98.5201,396.8774,93.4062,402.4497,86.6911,402.4497z M123.9416,350.1659h-9.0068v61.1374
			h9.0068V350.1659z M443.1568,404.1291c-5.0363,0-8.7015-2.4431-8.7015-8.3963v-18.4714h11.5262v-7.632h-11.5262v-9.6936h-8.6991
			v9.6936h-6.2597v7.632h6.1071v18.9293c0,9.9225,5.8769,15.8,15.7219,15.8c2.5194,0,4.4283-0.3058,5.5717-0.5348v-7.7083
			C445.5236,403.9764,444.3026,404.1291,443.1568,404.1291z M187.2943,404.1291c2.9772,5.1139,8.3212,8.1668,14.2733,8.1668
			c9.7699,0,18.9293-8.472,18.9293-21.8296c0-13.3576-8.8542-21.8296-18.624-21.8296c-5.6468,0-11.296,2.9003-14.0431,7.8615
			v-26.3324h-9.0068v61.1374h7.4806L187.2943,404.1291z M199.4309,376.8798c6.7926,0,11.984,5.648,11.984,13.6628
			c0,7.9379-5.1914,13.5102-11.9089,13.5102c-6.7151,0-11.829-5.5723-11.829-13.5865
			C187.6771,382.5278,192.7909,376.8798,199.4309,376.8798z M172.6383,390.4663c0-12.6702-9.0843-21.8296-21.1434-21.8296
			c-11.9816,0-21.2185,9.1594-21.2185,21.8296c0,12.6702,9.1594,21.8296,21.2185,21.8296S172.6383,403.1364,172.6383,390.4663z
			 M139.3607,390.4663c0-8.6252,5.952-13.5865,12.1342-13.5865s12.0591,4.9612,12.0591,13.5865s-5.8769,13.5865-12.0591,13.5865
			S139.3607,399.0915,139.3607,390.4663z M258.4353,411.3033h7.4806v-41.674h-7.4806l-0.9932,7.1742
			c-2.9748-5.1139-8.3188-8.1668-14.4235-8.1668c-9.5421,0-18.7016,8.6246-18.7016,21.9059
			c0,13.1286,9.1594,21.7533,18.7016,21.7533c6.1047,0,11.4487-3.0529,14.4235-8.1668L258.4353,411.3033z M245.3079,404.0528
			c-6.7926,0-11.984-5.5723-11.984-13.5865c0-7.9385,5.1914-13.5865,11.984-13.5865c6.64,0,11.829,5.648,11.829,13.5865
			C257.1369,398.4804,251.9479,404.0528,245.3079,404.0528z M357.132,368.6367c-11.1434,0-20.4554,8.6246-20.4554,21.9822
			c0,12.8234,8.2413,21.677,21.9041,21.677c5.344,0,10.2277-1.4505,14.5034-4.3508v-8.0905
			c-4.1982,3.2819-8.8542,4.9612-13.5877,4.9612c-7.3256,0-12.8973-4.2744-14.1957-11.6019h29.9976
			c0.1526-1.0689,0.2277-2.2135,0.2277-3.5108C375.5259,375.8878,367.2072,368.6367,357.132,368.6367z M345.3007,387.1838
			c1.0683-6.869,6.1071-11.0671,11.7539-11.0671c5.1914,0,9.6948,3.664,9.9225,11.0671H345.3007z M322.0206,411.3033h9.0068
			v-61.1374h-9.0068V411.3033z M294.2372,364.1333v5.496h-5.877v7.632h5.877v34.0419h9.0068v-34.0419h11.5237v-7.632h-11.6013
			v-4.5034c0-5.1139,2.5945-7.4043,7.4806-7.4043c2.1366,0,4.5034,0.5348,6.0295,1.0689v-7.9379
			c-2.3668-0.7631-4.8086-1.2215-7.4031-1.2215C299.9615,349.6311,294.2372,356.1191,294.2372,364.1333z M273.7793,411.3033h9.0068
			v-61.1374h-9.0068V411.3033z M100.0487,460.8769c-2.8246-6.8689-9.312-10.5329-15.7243-10.5329
			c-9.6172,0-18.4714,8.0142-18.4714,20.9902c0,12.8991,8.9305,20.9133,18.4714,20.9133c6.4874,0,12.976-3.5108,15.8769-10.9145
			h0.0751l0.4578,10.2277h2.5194v-60.6801h-3.2049V460.8769z M84.6296,489.1945c-8.3963,0-15.5705-6.9459-15.5705-17.8604
			c0-10.9914,7.1742-17.8609,15.5705-17.8609s15.5717,6.9458,15.5717,17.7846C100.2013,482.2486,93.0259,489.1945,84.6296,489.1945z
			 M264.5715,474.3435c-4.9612,0-8.8578,3.9874-8.8578,8.79c0,4.8026,3.8966,8.7894,8.8578,8.7894
			c4.9382,0,8.8796-3.9868,8.8796-8.7894C273.4511,478.3309,269.5097,474.3435,264.5715,474.3435z M264.5715,490.2465
			c-4.0334,0-7.1584-3.2165-7.1584-7.113c0-3.8966,3.125-7.136,7.1584-7.136c4.0092,0,7.1584,3.2395,7.1584,7.136
			C271.7299,487.03,268.5807,490.2465,264.5715,490.2465z M267.8781,481.3438c0-1.7218-1.2912-2.9675-3.647-2.9675h-2.5145v9.3332
			h1.6085v-3.4659h0.1805l2.8319,3.4659h2.0845l-3.148-3.6246C266.587,483.8584,267.8781,482.8615,267.8781,481.3438z
			 M263.3251,482.8615v-2.9905h0.6335c1.3372,0,2.2432,0.3628,2.2432,1.4499c0,0.9969-0.8152,1.5407-2.1063,1.5407H263.3251z
			 M139.6647,433.7809c-1.4499,0-2.5182,1.0689-2.5182,2.5188c0,1.4504,1.0683,2.5188,2.5182,2.5188
			c1.5274,0,2.5957-1.0683,2.5957-2.5188C142.2604,434.8498,141.1921,433.7809,139.6647,433.7809z M138.0622,491.5606h3.2062
			v-40.5299h-3.2062V491.5606z M165.4641,487.744h-0.0763l-13.3576-36.7133h-3.3576l14.9588,40.5299h3.5114l14.96-40.5299h-3.2812
			L165.4641,487.744z M203.9355,450.344c-9.7699,0-18.7767,7.9379-18.7767,21.0665c0,12.7465,7.9373,20.837,19.3108,20.837
			c5.2665,0,10.304-1.6788,14.5785-5.1902v-3.7397c-4.3508,4.1212-9.541,5.8769-14.4259,5.8769
			c-9.1594,0-15.7231-6.3354-16.2573-16.792h32.133c0.0763-0.4579,0.1526-1.1446,0.1526-1.9083
			C220.6507,457.2135,212.9411,450.344,203.9355,450.344z M188.4401,469.5021c0.688-9.9988,7.7859-16.1053,15.4954-16.1053
			c6.8689,0,13.3564,5.1139,13.509,16.1053H188.4401z M116.8425,458.587h-0.0763l-0.3052-7.5563h-2.5957v40.5299h3.2062V465.915
			c0.0763-8.0911,6.0296-12.136,11.7539-12.136c0.8406,0,1.7563,0.0763,2.4431,0.1526v-3.1299
			c-0.6868-0.0763-1.6025-0.1526-2.4431-0.1526C124.7047,450.6492,119.2844,452.939,116.8425,458.587z M232.407,458.587h-0.0763
			l-0.3052-7.5563h-2.5945v40.5299h3.2049V465.915c0.0763-8.0911,6.0296-12.136,11.7539-12.136
			c0.8406,0,1.7563,0.0763,2.4431,0.1526v-3.1299c-0.6868-0.0763-1.6025-0.1526-2.4431-0.1526
			C240.2691,450.6492,234.85,452.939,232.407,458.587z"/>
	</g>
</g>
</svg>
