<?xml version="1.0" encoding="UTF-8"?><svg id="Capa_2" xmlns="http://www.w3.org/2000/svg" viewBox="0 0 161.19 161.19"><defs><style>.cls-1{fill:#00d3c1;}.cls-2{fill:#00c7c1;}.cls-3{fill:#0096b2;}.cls-4{fill:#fff;}.cls-5{fill:#19dcc1;}.cls-6{fill:#28bec1;}.cls-7{fill:#4ae6c1;}</style></defs><g id="Capa_1-2"><g><rect class="cls-4" x="0" width="161.19" height="161.19" rx="28.91" ry="28.91"/><g><polygon class="cls-5" points="123.5 32.49 110.3 35.79 116.9 48.99 123.5 32.49"/><polygon class="cls-2" points="40.92 75.3 44.3 88.59 54.2 81.99 40.92 75.3"/><polygon class="cls-6" points="67.4 42.39 70.7 52.29 90.5 62.19 83.9 42.39 67.4 42.39"/><polygon class="cls-7" points="44.3 88.59 31.1 131.49 54.2 81.99 44.3 88.59"/><polygon class="cls-2" points="54.2 81.99 31.1 131.49 34.4 131.49 67.4 105.09 90.5 72.09 54.2 81.99"/><polygon class="cls-1" points="67.4 105.09 97.1 105.09 90.5 72.09 67.4 105.09"/><polygon class="cls-7" points="116.9 48.99 97.1 105.09 107 131.49 110.3 131.49 126.8 88.59 116.9 48.99"/><polygon class="cls-5" points="90.5 72.09 97.1 105.09 116.9 48.99 90.5 72.09"/><polygon class="cls-3" points="90.5 62.19 90.5 72.09 116.9 48.99 90.5 62.19"/><path class="cls-1" d="M110.3,35.79h-19.8l-6.6,6.6,6.6,19.8,26.4-13.2-6.6-13.2Zm-16.5,9.9c-1.82,0-3.3-1.48-3.3-3.3s1.48-3.3,3.3-3.3,3.3,1.48,3.3,3.3-1.48,3.3-3.3,3.3Z"/><polygon class="cls-3" points="54.89 121.59 64.1 131.49 67.4 131.49 66.37 111.69 54.89 121.59"/><polygon class="cls-3" points="127.49 100.17 120.2 121.59 126.8 131.49 130.1 131.49 127.49 100.17"/></g></g></g></svg>