<?xml version="1.0" encoding="utf-8"?>
<!-- Generator: Adobe Illustrator 26.5.0, SVG Export Plug-In . SVG Version: 6.00 Build 0)  -->
<svg version="1.1" id="Capa_1" xmlns="http://www.w3.org/2000/svg" xmlns:xlink="http://www.w3.org/1999/xlink" x="0px" y="0px"
	 viewBox="0 0 512.75 560.6526" style="enable-background:new 0 0 512.75 560.6526;" xml:space="preserve">
<style type="text/css">
	.st0{fill:#FFFFFF;stroke:#333333;stroke-width:0.75;stroke-miterlimit:10;}
	.st1{fill:#19DCC1;}
	.st2{fill:#00C7C1;}
	.st3{fill:#28BEC1;}
	.st4{fill:#4AE6C1;}
	.st5{fill:#00D3C1;}
	.st6{fill:#0096B2;}
	.st7{fill:#333333;}
</style>
<g>
	<path class="st0" d="M494.5797,560.2776H18.1703c-9.8281,0-17.7953-7.9672-17.7953-17.7953V18.1703
		c0-9.8281,7.9672-17.7953,17.7953-17.7953h476.4094c9.8281,0,17.7953,7.9672,17.7953,17.7953v524.3121
		C512.375,552.3104,504.4078,560.2776,494.5797,560.2776z"/>
	<g>
		<g>
			<g>
				<polygon class="st1" points="295.9141,68.4053 263.0482,76.6217 279.481,109.4877 				"/>
			</g>
			<g>
				<polygon class="st2" points="90.3203,175.0023 98.7188,208.0852 123.3682,191.6523 				"/>
			</g>
			<g>
				<polygon class="st3" points="156.2341,93.0546 164.4506,117.7041 213.7494,142.3535 197.3164,93.0546 				"/>
			</g>
			<g>
				<polygon class="st4" points="98.7188,208.0852 65.8529,314.8992 123.3682,191.6523 				"/>
			</g>
			<g>
				<polygon class="st2" points="123.3682,191.6523 65.8529,314.8992 74.0694,314.8992 156.2341,249.1676 213.7494,167.0029 				"/>
			</g>
			<g>
				<polygon class="st5" points="156.2341,249.1676 230.1823,249.1676 213.7494,167.0029 				"/>
			</g>
			<g>
				<polygon class="st4" points="279.481,109.4877 230.1823,249.1676 254.8316,314.8992 263.0482,314.8992 304.1305,208.0852 				
					"/>
			</g>
			<g>
				<polygon class="st1" points="213.7494,167.0029 230.1823,249.1676 279.481,109.4877 				"/>
			</g>
			<g>
				<polygon class="st6" points="213.7494,142.3535 213.7494,167.0029 279.481,109.4877 				"/>
			</g>
			<g>
				<path class="st5" d="M263.0482,76.6217h-49.2987l-16.433,16.4329l16.433,49.2988l65.7316-32.8658L263.0482,76.6217z
					 M221.9658,101.2712c-4.5378,0-8.2164-3.6787-8.2164-8.2165s3.6786-8.2164,8.2164-8.2164s8.2165,3.6786,8.2165,8.2164
					S226.5037,101.2712,221.9658,101.2712z"/>
			</g>
			<g>
				<polygon class="st6" points="125.0976,290.2499 148.0176,314.8992 156.2341,314.8992 153.6661,265.6005 				"/>
			</g>
			<g>
				<polygon class="st6" points="305.8564,236.9197 287.6976,290.2498 304.1305,314.8992 312.347,314.8993 				"/>
			</g>
		</g>
		<path class="st7" d="M137.1465,443.2454v7.7859h-4.6584h-1.3723h-13.5114v-7.2517c0-7.0979,3.5877-10.1514,9.0068-10.1514
			c1.984,0,4.4271,0.5354,5.8769,1.2209v-3.2049c-1.6025-0.688-3.8929-1.1458-6.0296-1.1458
			c-6.7163,0-12.1366,4.5034-12.1366,12.7471v7.7859h-6.0296v2.9772h6.1071v37.5521h3.2049v-37.5521h13.5114h1.3723h4.7335v37.5521
			h3.2061v-37.5521h12.2129v-2.9772h-12.2129v-7.2517c0-7.0979,3.5877-10.1514,9.0068-10.1514c1.9852,0,4.4271,0.5354,5.8769,1.2209
			v-3.2049c-1.6025-0.688-3.8917-1.1458-6.0296-1.1458C142.5656,430.4983,137.1465,435.0017,137.1465,443.2454z M162.4106,491.5606
			h3.2049v-40.5293h-3.2049V491.5606z M123.9416,350.1658h-9.0068v61.1374h9.0068V350.1658z M98.8253,376.4982
			c-2.8997-4.7323-8.2413-7.7852-14.1182-7.7852c-9.7699,0-18.8542,8.6246-18.8542,20.9139
			c0,12.5175,8.9317,20.9133,18.7016,20.9133c5.8769,0,10.9133-2.9766,13.7379-7.48v5.3434c0,7.0979-5.8018,11.8302-13.2049,11.8302
			c-5.2665,0-10.7631-2.2899-15.0363-6.0296v9.0831c4.3508,3.1286,10,5.0376,15.6468,5.0376
			c11.9065,0,21.6013-7.4043,21.6013-21.1428v-37.5527h-7.4806L98.8253,376.4982z M86.6911,402.4496
			c-6.7175,0-11.8314-5.496-11.8314-12.7465c0-7.2517,5.1139-12.8234,11.8314-12.8234c6.7151,0,11.829,5.3428,11.829,12.5945
			C98.5201,396.8773,93.4062,402.4496,86.6911,402.4496z M164.0131,433.7808c-1.4499,0-2.5182,1.0683-2.5182,2.5194
			c0,1.4499,1.0683,2.5182,2.5182,2.5182c1.5262,0,2.5957-1.0683,2.5957-2.5182
			C166.6087,434.8491,165.5392,433.7808,164.0131,433.7808z M443.1568,404.129c-5.0363,0-8.7015-2.4431-8.7015-8.3963v-18.4714
			h11.5262v-7.632h-11.5262v-9.6935h-8.6991v9.6935h-6.2597v7.632h6.1071v18.9293c0,9.9225,5.8769,15.8,15.7219,15.8
			c2.5194,0,4.4283-0.3058,5.5717-0.5348v-7.7083C445.5236,403.9764,444.3026,404.129,443.1568,404.129z M273.7793,411.3032h9.0068
			v-61.1374h-9.0068V411.3032z M399.7241,368.6366c-11.1434,0-20.4554,8.6246-20.4554,21.9822
			c0,12.8234,8.2437,21.677,21.9065,21.677c5.3416,0,10.2277-1.4505,14.501-4.3508v-8.0905
			c-4.1982,3.2819-8.8542,4.9612-13.5853,4.9612c-7.328,0-12.8997-4.2745-14.1982-11.6019h29.9976
			c0.1526-1.0689,0.2302-2.2136,0.2302-3.5108C418.1205,375.8877,409.7992,368.6366,399.7241,368.6366z M387.8927,387.1837
			c1.0707-6.8689,6.1071-11.0671,11.7563-11.0671c5.189,0,9.6924,3.664,9.9225,11.0671H387.8927z M187.2943,404.129
			c2.9772,5.1139,8.3212,8.1668,14.2733,8.1668c9.7699,0,18.9293-8.472,18.9293-21.8296s-8.8542-21.8296-18.624-21.8296
			c-5.6468,0-11.296,2.9003-14.0431,7.8616v-26.3324h-9.0068v61.1374h7.4806L187.2943,404.129z M199.4309,376.8797
			c6.7926,0,11.984,5.648,11.984,13.6628c0,7.9379-5.1914,13.5102-11.9089,13.5102c-6.7151,0-11.829-5.5723-11.829-13.5865
			C187.6771,382.5277,192.7909,376.8797,199.4309,376.8797z M85.24,450.3433c-10.6856,0-19.3871,8.6265-19.3871,20.9908
			c0,12.3643,8.7766,20.9133,19.3871,20.9133c10.6093,0,19.3096-8.549,19.3096-20.9133
			C104.5496,458.9697,95.8493,450.3433,85.24,450.3433z M85.24,489.195c-8.2437,0-16.1822-6.5649-16.1822-17.8609
			c0-11.2961,7.8622-17.861,16.1822-17.861c8.2425,0,16.1047,6.5649,16.1047,17.861
			C101.3447,482.5538,93.4825,489.195,85.24,489.195z M294.2372,364.1332v5.496h-5.877v7.632h5.877v34.0419h9.0068v-34.0419h11.5237
			v-7.632h-11.6013v-4.5034c0-5.1139,2.5945-7.4043,7.4806-7.4043c2.1366,0,4.5034,0.5348,6.0295,1.0689v-7.9379
			c-2.3668-0.7631-4.8086-1.2216-7.4031-1.2216C299.9615,349.631,294.2372,356.119,294.2372,364.1332z M322.0206,411.3032h9.0068
			v-61.1374h-9.0068V411.3032z M268.1858,481.3438c0-1.7224-1.2912-2.9675-3.6483-2.9675h-2.5145v9.3338h1.6085v-3.4666h0.1817
			l2.8319,3.4666h2.0833l-3.148-3.6252C266.8946,483.8583,268.1858,482.8615,268.1858,481.3438z M263.6315,482.8615v-2.9906h0.6347
			c1.3372,0,2.2432,0.3634,2.2432,1.4499c0,0.9969-0.8164,1.5407-2.1076,1.5407H263.6315z M264.8779,474.3428
			c-4.9612,0-8.8578,3.9874-8.8578,8.7912c0,4.8014,3.8965,8.7888,8.8578,8.7888c4.9382,0,8.8808-3.9874,8.8808-8.7888
			C273.7587,478.3302,269.8161,474.3428,264.8779,474.3428z M264.8779,490.2464c-4.0322,0-7.1584-3.217-7.1584-7.1124
			c0-3.8978,3.1262-7.1366,7.1584-7.1366c4.0104,0,7.1584,3.2389,7.1584,7.1366
			C272.0363,487.0293,268.8883,490.2464,264.8779,490.2464z M357.132,368.6366c-11.1434,0-20.4554,8.6246-20.4554,21.9822
			c0,12.8234,8.2413,21.677,21.9041,21.677c5.344,0,10.2277-1.4505,14.5034-4.3508v-8.0905
			c-4.1982,3.2819-8.8542,4.9612-13.5877,4.9612c-7.3256,0-12.8973-4.2745-14.1957-11.6019h29.9976
			c0.1526-1.0689,0.2277-2.2136,0.2277-3.5108C375.5259,375.8877,367.2072,368.6366,357.132,368.6366z M345.3007,387.1837
			c1.0683-6.8689,6.1071-11.0671,11.7539-11.0671c5.1914,0,9.6948,3.664,9.9225,11.0671H345.3007z M151.4949,368.6366
			c-11.9816,0-21.2185,9.1594-21.2185,21.8296s9.1594,21.8296,21.2185,21.8296s21.1434-9.1594,21.1434-21.8296
			S163.554,368.6366,151.4949,368.6366z M151.4949,404.0527c-6.1822,0-12.1342-4.9612-12.1342-13.5865
			s5.952-13.5865,12.1342-13.5865s12.0591,4.9612,12.0591,13.5865S157.6771,404.0527,151.4949,404.0527z M174.7774,471.2578
			c0,12.213,8.6252,20.9896,19.616,20.9896c3.9692,0,7.7858-0.9157,10.9145-2.8246v-3.5865
			c-3.5102,2.5957-7.7083,3.3588-10.9145,3.3588c-8.5477,0-16.4099-6.8701-16.4099-17.9373
			c0-10.8394,7.7847-17.7846,16.2573-17.7846c3.8166,0,7.4806,0.7631,11.0671,3.3588v-3.5877
			c-3.4339-2.2129-7.2505-2.9009-10.9908-2.9009C183.3263,450.3433,174.7774,459.35,174.7774,471.2578z M228.8968,450.3433
			c-9.7699,0-18.7766,7.9385-18.7766,21.0671c0,12.7459,7.9385,20.837,19.3108,20.837c5.2665,0,10.304-1.6788,14.5785-5.1902
			v-3.7391c-4.3508,4.1206-9.5409,5.8769-14.4259,5.8769c-9.1594,0-15.7231-6.336-16.2573-16.7926h32.1342
			c0.0751-0.4579,0.1526-1.1446,0.1526-1.9089C245.6131,457.2134,237.9036,450.3433,228.8968,450.3433z M213.4026,469.5027
			c0.6868-10,7.7847-16.1059,15.4942-16.1059c6.869,0,13.3576,5.1139,13.5102,16.1059H213.4026z M258.4353,411.3032h7.4806v-41.674
			h-7.4806l-0.9932,7.1742c-2.9748-5.1139-8.3188-8.1668-14.4235-8.1668c-9.5421,0-18.7016,8.6246-18.7016,21.9059
			c0,13.1287,9.1594,21.7533,18.7016,21.7533c6.1047,0,11.4487-3.0529,14.4235-8.1668L258.4353,411.3032z M245.3079,404.0527
			c-6.7926,0-11.984-5.5723-11.984-13.5865c0-7.9385,5.1914-13.5865,11.984-13.5865c6.64,0,11.829,5.648,11.829,13.5865
			C257.1369,398.4803,251.9479,404.0527,245.3079,404.0527z"/>
	</g>
</g>
</svg>
