<?xml version="1.0" standalone="no"?>
<!DOCTYPE svg PUBLIC "-//W3C//DTD SVG 20010904//EN"
 "http://www.w3.org/TR/2001/REC-SVG-20010904/DTD/svg10.dtd">
<svg version="1.0" xmlns="http://www.w3.org/2000/svg"
 width="1024.000000pt" height="1024.000000pt" viewBox="0 0 1024.000000 1024.000000"
 preserveAspectRatio="xMidYMid meet">
<metadata>
Created by potrace 1.14, written by Peter Selinger 2001-2017
</metadata>
<g transform="translate(0.000000,1024.000000) scale(0.100000,-0.100000)"
fill="#000000" stroke="none">
<path d="M9350 10159 c-85 -22 -162 -41 -170 -43 -8 -2 -240 -60 -515 -129
l-500 -125 -995 0 c-547 0 -1005 -1 -1017 -1 -14 -1 -133 -112 -360 -339
l-338 -338 -842 1 c-745 0 -843 -2 -842 -15 0 -8 76 -237 167 -509 l167 -495
1005 -502 c553 -277 1009 -505 1015 -507 10 -4 15 -1002 5 -1016 -3 -4 -126
-40 -275 -80 -148 -40 -290 -78 -315 -86 -25 -7 -173 -48 -330 -90 -157 -42
-296 -80 -310 -85 -14 -5 -36 -12 -50 -14 -14 -3 -158 -41 -320 -86 -292 -80
-313 -86 -348 -94 -9 -2 -58 -16 -108 -30 -50 -15 -100 -28 -110 -31 -10 -2
-62 -16 -114 -30 -52 -15 -102 -28 -110 -30 -8 -2 -82 -23 -165 -46 -82 -23
-154 -42 -160 -43 -5 -2 -30 -8 -55 -15 -25 -7 -52 -15 -60 -16 -8 -2 -206
-56 -440 -120 -233 -64 -432 -117 -441 -118 -14 -1 -574 277 -1177 584 -170
86 -192 95 -188 75 2 -12 32 -132 66 -266 34 -135 64 -253 66 -262 2 -10 6
-26 8 -35 127 -494 197 -782 193 -798 -3 -11 -42 -139 -87 -285 -45 -146 -99
-321 -120 -390 -40 -132 -220 -715 -365 -1185 -169 -549 -188 -611 -206 -670
-10 -33 -31 -103 -48 -155 -16 -52 -46 -149 -66 -215 -20 -66 -54 -176 -75
-245 -60 -192 -171 -553 -175 -570 -2 -8 -29 -96 -60 -195 -32 -99 -61 -193
-65 -210 -5 -16 -20 -68 -35 -115 -35 -110 -45 -144 -45 -147 0 -2 77 -3 171
-3 l171 0 710 568 c391 312 715 572 722 577 6 6 65 53 131 105 66 52 122 97
125 100 3 3 386 310 851 681 l845 676 1523 -1 1524 -1 67 -180 c38 -99 177
-470 310 -825 477 -1272 542 -1447 589 -1570 l47 -125 173 0 173 0 55 145 c30
80 61 159 68 175 7 17 97 251 199 520 103 270 191 499 197 510 5 11 59 151
119 310 61 160 122 317 135 350 38 98 277 717 291 755 24 67 504 1315 513
1335 5 11 33 82 62 159 l52 138 -72 287 c-40 157 -74 297 -77 311 -2 14 -7 32
-10 40 -3 8 -8 24 -10 35 -2 11 -49 200 -104 420 -56 220 -103 411 -106 424
-3 14 -7 28 -9 31 -2 4 -7 20 -9 36 -3 16 -35 146 -72 289 -36 143 -67 271
-70 284 -3 14 -7 28 -9 31 -2 4 -7 20 -9 36 -3 16 -35 146 -71 289 -37 143
-68 268 -70 278 -2 10 -7 27 -10 37 -3 10 -8 28 -10 39 -2 12 -11 49 -20 84
-9 34 -19 73 -21 87 -3 14 -10 43 -16 65 -16 56 -16 58 -21 80 -3 11 -13 49
-22 85 -9 36 -19 74 -21 86 -2 12 -38 156 -80 320 -42 164 -77 308 -80 319 -2
11 -6 33 -10 48 -4 21 14 77 71 220 42 106 80 201 85 212 5 11 82 202 170 425
89 223 165 414 170 425 14 29 170 425 170 430 0 7 0 7 -170 -36z m-2764 -659
c240 -84 302 -394 113 -564 -214 -193 -558 -41 -560 248 -2 229 230 393 447
316z"/>
<path d="M9927 3243 c-5 -8 -49 -141 -53 -158 -2 -5 -17 -50 -34 -99 -26 -72
-252 -735 -380 -1116 -16 -47 -85 -249 -153 -450 l-124 -365 336 -505 337
-505 172 -3 173 -2 -6 87 c-4 49 -8 99 -10 113 -2 14 -7 68 -10 120 -4 52 -8
109 -10 125 -1 17 -6 66 -9 110 -4 44 -9 98 -11 120 -2 22 -7 81 -10 130 -4
50 -8 101 -10 115 -2 14 -7 68 -10 120 -4 52 -8 106 -10 120 -2 14 -7 66 -10
115 -4 50 -8 106 -10 125 -2 19 -6 71 -9 115 -4 44 -9 100 -11 125 -5 49 -12
139 -20 240 -3 36 -7 88 -10 115 -2 28 -7 84 -10 125 -3 41 -8 95 -10 120 -2
25 -7 81 -10 125 -3 44 -8 96 -10 115 -2 19 -7 71 -10 115 -3 44 -8 100 -10
125 -2 25 -7 79 -10 120 -3 41 -8 95 -10 120 -10 100 -18 197 -18 223 -1 28
-3 32 -10 20z"/>
<path d="M3595 2018 c-33 -28 -87 -74 -120 -103 -33 -29 -116 -101 -185 -160
-69 -59 -150 -128 -180 -155 -30 -26 -95 -82 -145 -125 -49 -42 -104 -89 -120
-104 -36 -31 -218 -188 -258 -222 -16 -13 -46 -40 -68 -59 l-39 -35 58 -62
c31 -33 81 -87 111 -120 30 -32 84 -90 120 -129 56 -60 143 -153 311 -334 19
-21 80 -86 136 -146 56 -60 125 -135 154 -166 l52 -58 173 0 172 0 -3 42 c-1
24 -5 104 -9 178 -3 74 -8 164 -10 200 -2 36 -6 124 -10 195 -4 72 -8 159 -10
195 -2 36 -6 115 -9 175 -7 125 -13 246 -21 390 -10 184 -15 289 -20 390 -5
121 -15 258 -18 262 -2 1 -29 -21 -62 -49z"/>
</g>
</svg>
